<svg width="53" height="53" viewBox="0 0 53 53" fill="none" xmlns="http://www.w3.org/2000/svg">
<path d="M11.0416 39.75V48.0666L14.3872 46.0592L24.9033 39.75H35.3333C37.7691 39.75 39.75 37.7691 39.75 35.3333V17.6667C39.75 15.2309 37.7691 13.25 35.3333 13.25H8.83329C6.3975 13.25 4.41663 15.2309 4.41663 17.6667V35.3333C4.41663 37.7691 6.3975 39.75 8.83329 39.75H11.0416ZM8.83329 17.6667H35.3333V35.3333H23.6799L15.4583 40.2667V35.3333H8.83329V17.6667Z" fill="white"/>
<path d="M44.1667 4.41669H17.6667C15.2309 4.41669 13.25 6.39756 13.25 8.83335H39.75C42.1858 8.83335 44.1667 10.8142 44.1667 13.25V30.9167C46.6025 30.9167 48.5833 28.9358 48.5833 26.5V8.83335C48.5833 6.39756 46.6025 4.41669 44.1667 4.41669Z" fill="white"/>
</svg>
