<svg width="56" height="56" viewBox="0 0 56 56" fill="none" xmlns="http://www.w3.org/2000/svg">
<g filter="url(#filter0_d)">
<circle cx="28" cy="24" r="24" fill="#FBFF3A"/>
<path d="M43.7194 21.3777C43.3995 20.605 42.714 20.4198 42.25 20.3755V15.6666C42.25 13.9202 40.8298 12.5 39.0834 12.5H29.5834V10.2991C30.0663 9.86529 30.375 9.24146 30.375 8.54163C30.375 7.91174 30.1248 7.30765 29.6794 6.86225C29.234 6.41685 28.6299 6.16663 28 6.16663C27.3702 6.16663 26.7661 6.41685 26.3207 6.86225C25.8753 7.30765 25.625 7.91174 25.625 8.54163C25.625 9.24146 25.9338 9.86529 26.4167 10.2991V12.5H16.9167C15.1703 12.5 13.75 13.9202 13.75 15.6666V20.4119L13.6202 20.4214C13.2212 20.4502 12.8478 20.629 12.5752 20.9218C12.3027 21.2147 12.151 21.5999 12.1509 22V25.1666C12.1509 25.5866 12.3177 25.9893 12.6146 26.2862C12.9116 26.5831 13.3143 26.75 13.7342 26.75H13.75V34.6666C13.75 36.413 15.1703 37.8333 16.9167 37.8333H39.0834C40.8298 37.8333 42.25 36.413 42.25 34.6666V26.75C42.67 26.75 43.0727 26.5831 43.3696 26.2862C43.6666 25.9893 43.8334 25.5866 43.8334 25.1666V22.0981C43.8516 21.8524 43.8126 21.6058 43.7194 21.3777ZM16.9167 34.6666V15.6666H39.0834L39.085 21.9936L39.0834 22V25.1666L39.085 25.1745L39.0865 34.6666H16.9167Z" fill="black"/>
<path d="M22.4584 25.1667C23.7701 25.1667 24.8334 23.7489 24.8334 22C24.8334 20.2511 23.7701 18.8334 22.4584 18.8334C21.1467 18.8334 20.0834 20.2511 20.0834 22C20.0834 23.7489 21.1467 25.1667 22.4584 25.1667Z" fill="black"/>
<path d="M33.5416 25.1667C34.8533 25.1667 35.9166 23.7489 35.9166 22C35.9166 20.2511 34.8533 18.8334 33.5416 18.8334C32.2299 18.8334 31.1666 20.2511 31.1666 22C31.1666 23.7489 32.2299 25.1667 33.5416 25.1667Z" fill="black"/>
<path d="M21.6666 28.3334H34.3333V31.5H21.6666V28.3334Z" fill="black"/>
</g>
<defs>
<filter id="filter0_d" x="0" y="0" width="56" height="56" filterUnits="userSpaceOnUse" color-interpolation-filters="sRGB">
<feFlood flood-opacity="0" result="BackgroundImageFix"/>
<feColorMatrix in="SourceAlpha" type="matrix" values="0 0 0 0 0 0 0 0 0 0 0 0 0 0 0 0 0 0 127 0"/>
<feOffset dy="4"/>
<feGaussianBlur stdDeviation="2"/>
<feColorMatrix type="matrix" values="0 0 0 0 0 0 0 0 0 0 0 0 0 0 0 0 0 0 0.25 0"/>
<feBlend mode="normal" in2="BackgroundImageFix" result="effect1_dropShadow"/>
<feBlend mode="normal" in="SourceGraphic" in2="effect1_dropShadow" result="shape"/>
</filter>
</defs>
</svg>
