<svg width="30" height="30" viewBox="0 0 30 30" fill="none" xmlns="http://www.w3.org/2000/svg">
<path d="M21.6163 5.88368L12.5001 14.9999L21.6163 24.1162C21.8506 24.3506 21.9823 24.6685 21.9823 24.9999C21.9823 25.3314 21.8506 25.6493 21.6163 25.8837L20.8838 26.6162C20.6494 26.8505 20.3315 26.9822 20.0001 26.9822C19.6686 26.9822 19.3507 26.8505 19.1163 26.6162L8.3838 15.8837C8.14947 15.6493 8.01782 15.3314 8.01782 14.9999C8.01782 14.6685 8.14947 14.3506 8.3838 14.1162L19.1163 3.38368C19.3507 3.14934 19.6686 3.0177 20.0001 3.0177C20.3315 3.0177 20.6494 3.14934 20.8838 3.38368L21.6163 4.11618C21.8506 4.35059 21.9823 4.66848 21.9823 4.99993C21.9823 5.33139 21.8506 5.64927 21.6163 5.88368Z" fill="white"/>
</svg>
